<svg width="24" height="25" viewBox="0 0 24 25" fill="none" xmlns="http://www.w3.org/2000/svg">
<path d="M9.85746 19.6073C15.3039 19.6073 19.7149 15.2203 19.7149 9.80364C19.7149 4.38694 15.3039 0 9.85746 0C4.41103 0 0 4.38694 0 9.80364C0 15.212 4.41103 19.6073 9.85746 19.6073ZM9.85746 2.56184C13.8728 2.56184 17.139 5.80181 17.139 9.80364C17.139 13.7971 13.8813 17.0454 9.85746 17.0454C5.83366 17.0454 2.5759 13.8055 2.5759 9.80364C2.5759 5.80181 5.83366 2.56184 9.85746 2.56184Z" fill="black"/>
<path d="M17.501 18.4101C16.9033 19.0045 16.2467 19.4733 15.5396 19.8417L20.5988 24.9989C20.5988 24.9989 21.6006 25.0826 22.8801 23.81C24.0502 22.6463 23.9997 21.6166 23.9997 21.6166L18.9405 16.4594C18.5701 17.1627 18.0987 17.824 17.501 18.4101Z" fill="black"/>
<path fill-rule="evenodd" clip-rule="evenodd" d="M9 9V5H11V9H15V11H11V15H9V11H5V9H9Z" fill="black"/>
</svg>
