<svg width="34" height="27" viewBox="0 0 34 27" fill="none" xmlns="http://www.w3.org/2000/svg">
<path d="M1.16365 18.0451L2.07305 20.9914H23.5174L30.069 2.94633H32.6897L34 0H28.1035L21.5421 18.0451H1.16365Z" fill="white"/>
<path d="M19.6451 15.8812L24.2312 3.2458H0L3.76474 15.8812H19.6451Z" fill="white"/>
<path d="M5.79868 21.8125C4.35145 21.8125 3.16825 22.9717 3.16825 24.4111C3.16825 25.8408 4.34167 27 5.79868 27C7.2459 27 8.4291 25.8408 8.4291 24.4111C8.41933 22.9814 7.2459 21.8125 5.79868 21.8125Z" fill="white"/>
<path d="M18.6379 21.8125C17.1907 21.8125 16.0075 22.9717 16.0075 24.4111C16.0075 25.8408 17.1809 27 18.6379 27C20.0851 27 21.2683 25.8408 21.2683 24.4111C21.2683 22.9814 20.0949 21.8125 18.6379 21.8125Z" fill="white"/>
</svg>
