<svg width="53" height="51" viewBox="0 0 53 51" fill="none" xmlns="http://www.w3.org/2000/svg">
<path opacity="0.25" d="M51.3962 25.5C51.3962 39.0073 40.1583 50 26.2421 50C12.3259 50 1.08813 39.0073 1.08813 25.5C1.08813 11.9927 12.3259 1 26.2421 1C40.1583 1 51.3962 11.9927 51.3962 25.5Z" stroke="white" stroke-width="2"/>
<path d="M24.1486 33.3129L24.1248 26.1762H21.0112V23.1176H24.1248V21.0786C24.1248 18.3267 25.8596 17.0005 28.3586 17.0005C29.5556 17.0005 30.5844 17.088 30.8843 17.1272V20.0031L29.1511 20.0038C27.792 20.0038 27.5288 20.6382 27.5288 21.5692V23.1176H31.3898L30.3519 26.1762H27.5288V33.3129H24.1486Z" fill="white"/>
</svg>
