<svg width="53" height="51" viewBox="0 0 53 51" fill="none" xmlns="http://www.w3.org/2000/svg">
<path opacity="0.25" d="M51.7044 25.5C51.7044 39.0073 40.4666 50 26.5503 50C12.6341 50 1.39624 39.0073 1.39624 25.5C1.39624 11.9927 12.6341 1 26.5503 1C40.4666 1 51.7044 11.9927 51.7044 25.5Z" stroke="white" stroke-width="2"/>
<path d="M30.4652 22.6016C30.966 22.6016 31.3719 22.2058 31.3719 21.7175C31.3719 21.2292 30.966 20.8333 30.4652 20.8333C29.9645 20.8333 29.5586 21.2292 29.5586 21.7175C29.5586 22.2058 29.9645 22.6016 30.4652 22.6016Z" fill="white"/>
<path fill-rule="evenodd" clip-rule="evenodd" d="M22.7727 25.5004C22.7727 27.5318 24.4671 29.1838 26.5506 29.1838C28.634 29.1838 30.3284 27.5318 30.3284 25.5004C30.3284 23.4691 28.634 21.8171 26.5506 21.8171C24.4671 21.8171 22.7727 23.4691 22.7727 25.5004ZM24.6616 25.501C24.6616 24.4852 25.5088 23.6591 26.5505 23.6591C27.5922 23.6591 28.4394 24.4852 28.4394 25.501C28.4394 26.5167 27.5922 27.3428 26.5505 27.3428C25.5088 27.3428 24.6616 26.5167 24.6616 25.501Z" fill="white"/>
<path fill-rule="evenodd" clip-rule="evenodd" d="M22.7724 32.8672H30.3281C32.2699 32.8672 34.1059 31.0771 34.1059 29.1839V21.8172C34.1059 19.9239 32.2699 18.1338 30.3281 18.1338H22.7724C20.8306 18.1338 18.9946 19.9239 18.9946 21.8172V29.1839C18.9946 31.0771 20.8306 32.8672 22.7724 32.8672ZM20.8838 21.8161C20.8838 20.9551 21.8896 19.9744 22.7727 19.9744H30.3283C31.2114 19.9744 32.2172 20.9551 32.2172 21.8161V29.1826C32.2172 30.0436 31.2114 31.0242 30.3283 31.0242H22.7727C21.8726 31.0242 20.8838 30.0602 20.8838 29.1826V21.8161Z" fill="white"/>
</svg>
