<svg width="15" height="15" viewBox="0 0 15 15" fill="none" xmlns="http://www.w3.org/2000/svg">
<path d="M11.4537 4.38818C11.9275 4.38818 12.3116 4.01359 12.3116 3.55151C12.3116 3.08943 11.9275 2.71484 11.4537 2.71484C10.9798 2.71484 10.5957 3.08943 10.5957 3.55151C10.5957 4.01359 10.9798 4.38818 11.4537 4.38818Z" fill="white"/>
<path fill-rule="evenodd" clip-rule="evenodd" d="M4.17383 7.1311C4.17383 9.05341 5.77722 10.6167 7.74884 10.6167C9.72046 10.6167 11.3239 9.05341 11.3239 7.1311C11.3239 5.2088 9.72046 3.64551 7.74884 3.64551C5.77722 3.64551 4.17383 5.2088 4.17383 7.1311ZM5.96143 7.13159C5.96143 6.17037 6.76311 5.38867 7.7489 5.38867C8.73469 5.38867 9.53638 6.17037 9.53638 7.13159C9.53638 8.09281 8.73469 8.87451 7.7489 8.87451C6.76311 8.87451 5.96143 8.09281 5.96143 7.13159Z" fill="white"/>
<path fill-rule="evenodd" clip-rule="evenodd" d="M4.1741 14.1025H11.3241C13.1616 14.1025 14.899 12.4085 14.899 10.6169V3.64575C14.899 1.85416 13.1616 0.160156 11.3241 0.160156H4.1741C2.33656 0.160156 0.599121 1.85416 0.599121 3.64575V10.6169C0.599121 12.4085 2.33656 14.1025 4.1741 14.1025ZM2.3866 3.64559C2.3866 2.83085 3.33844 1.90283 4.17409 1.90283H11.3241C12.1597 1.90283 13.1116 2.83085 13.1116 3.64559V10.6166C13.1116 11.4314 12.1597 12.3594 11.3241 12.3594H4.17409C3.32235 12.3594 2.3866 11.447 2.3866 10.6166V3.64559Z" fill="white"/>
</svg>
