<svg width="275" height="85" viewBox="0 0 275 85" fill="none" xmlns="http://www.w3.org/2000/svg">
<path d="M18.5925 0.710949H0V50.4774H18.5925V33.4146H30.034V50.4774H48.6266V0.710949H30.034V17.7737H18.5925V0.710949Z" fill="white"/>
<path d="M81.507 33.7701C78.2891 33.7701 75.7863 31.2818 75.7863 27.3716V0.710949H57.1937V27.3716C57.1937 41.5905 67.2051 51.5438 81.507 51.5438C95.809 51.5438 105.82 41.5905 105.82 27.3716V0.710949H87.2278V27.3716C87.2278 31.2818 84.725 33.7701 81.507 33.7701Z" fill="white"/>
<path d="M138.701 33.7701C135.483 33.7701 132.98 31.2818 132.98 27.3716V0.710949H114.387V27.3716C114.387 41.5905 124.399 51.5438 138.701 51.5438C153.003 51.5438 163.014 41.5905 163.014 27.3716V0.710949H144.422V27.3716C144.422 31.2818 141.919 33.7701 138.701 33.7701Z" fill="white"/>
<path d="M193.034 0C181.593 0 171.581 0.710949 171.581 0.710949V50.4774H190.174V34.4811C190.174 34.4811 193.749 34.8365 196.61 34.8365C208.766 34.8365 215.917 27.727 215.917 17.4183C215.917 7.1095 208.766 0 193.034 0ZM190.174 21.3285V13.508H193.034C195.537 13.508 197.325 15.2854 197.325 17.4183C197.325 19.5511 195.537 21.3285 193.034 21.3285H190.174Z" fill="white"/>
<path d="M253.488 0.710949H229.174L214.515 50.4774H235.253L236.683 43.3679H245.979L247.409 50.4774H268.147C268.147 50.4774 253.559 0.99533 253.488 0.710949ZM238.828 31.9927L241.331 19.1956L243.834 31.9927H238.828Z" fill="white"/>
<path d="M180.781 69.2075C179.964 69.2075 179.415 69.5906 179.133 70.3567C178.852 71.0945 178.711 72.2579 178.711 73.8469C178.711 75.4359 178.838 76.5851 179.091 77.2945C179.373 78.0039 179.936 78.3586 180.781 78.3586C181.654 78.3586 182.781 78.2025 184.161 77.8904L184.921 83.3384C182.978 83.9911 181.246 84.3174 179.725 84.3174C177.049 84.3174 175.022 83.4094 173.642 81.5934C172.29 79.7773 171.614 77.2377 171.614 73.9746C171.614 70.7114 172.318 68.0725 173.726 66.0578C175.134 64.0148 177.176 62.9933 179.852 62.9933C181.851 62.9933 183.654 63.3338 185.259 64.0148L184.499 70.2716C182.865 69.5622 181.626 69.2075 180.781 69.2075Z" fill="white"/>
<path d="M186.599 73.6341C186.599 69.8885 187.303 67.1787 188.712 65.5045C190.148 63.8304 192.373 62.9933 195.386 62.9933C198.428 62.9933 200.639 63.8162 202.019 65.462C203.399 67.1077 204.089 69.8176 204.089 73.5915C204.089 77.3371 203.413 80.0611 202.061 81.7636C200.709 83.4661 198.498 84.3174 195.429 84.3174C192.359 84.3174 190.12 83.4661 188.712 81.7636C187.303 80.0611 186.599 77.3512 186.599 73.6341ZM196.738 69.5906C196.569 69.0231 196.119 68.7393 195.386 68.7393C194.654 68.7393 194.189 69.0231 193.992 69.5906C193.795 70.1581 193.697 71.3499 193.697 73.1659V74.1874C193.697 76.202 193.795 77.5073 193.992 78.1032C194.189 78.6991 194.64 78.997 195.344 78.997C196.076 78.997 196.541 78.6991 196.738 78.1032C196.935 77.5073 197.034 76.2872 197.034 74.4428V73.2084C197.034 71.364 196.935 70.1581 196.738 69.5906Z" fill="white"/>
<path d="M213.383 56.3109C215.129 56.3109 216.96 56.396 218.875 56.5663L218.284 62.7805C217.016 62.6386 216.087 62.5677 215.495 62.5677C214.932 62.5677 214.651 62.8231 214.651 63.3338V64.0999H218.115L217.777 69.3778H214.735V83.8918H207.68V69.3778H205.821V64.0999H207.68V61.9718C207.68 58.1979 209.581 56.3109 213.383 56.3109Z" fill="white"/>
<path d="M226.182 56.3109C227.928 56.3109 229.759 56.396 231.674 56.5663L231.083 62.7805C229.815 62.6386 228.886 62.5677 228.295 62.5677C227.731 62.5677 227.45 62.8231 227.45 63.3338V64.0999H230.914L230.576 69.3778H227.534V83.8918H220.479V69.3778H218.62V64.0999H220.479V61.9718C220.479 58.1979 222.38 56.3109 226.182 56.3109Z" fill="white"/>
<path d="M240.756 69.0798C240.023 69.0798 239.545 69.3352 239.319 69.846C239.094 70.3283 238.981 71.0803 238.981 72.1018H242.657V71.0803C242.657 69.7466 242.023 69.0798 240.756 69.0798ZM240.925 62.9933C243.825 62.9933 245.895 63.7027 247.135 65.1215C248.402 66.5119 249.036 68.5123 249.036 71.1229C249.036 71.4634 248.937 72.9956 248.74 75.7197H239.108C239.108 77.8478 240.08 78.9119 242.023 78.9119C242.952 78.9119 244.769 78.5856 247.473 77.9329L248.064 83.2108C245.698 83.9485 243.333 84.3174 240.967 84.3174C238.066 84.3174 235.841 83.3668 234.292 81.4657C232.743 79.5361 231.969 76.9256 231.969 73.6341C231.969 66.5402 234.954 62.9933 240.925 62.9933Z" fill="white"/>
<path d="M259.867 69.0798C259.134 69.0798 258.656 69.3352 258.43 69.846C258.205 70.3283 258.092 71.0803 258.092 72.1018H261.768V71.0803C261.768 69.7466 261.134 69.0798 259.867 69.0798ZM260.036 62.9933C262.936 62.9933 265.007 63.7027 266.246 65.1215C267.513 66.5119 268.147 68.5123 268.147 71.1229C268.147 71.4634 268.048 72.9956 267.851 75.7197H258.219C258.219 77.8478 259.191 78.9119 261.134 78.9119C262.063 78.9119 263.88 78.5856 266.584 77.9329L267.175 83.2108C264.809 83.9485 262.444 84.3174 260.078 84.3174C257.177 84.3174 254.952 83.3668 253.403 81.4657C251.854 79.5361 251.08 76.9256 251.08 73.6341C251.08 66.5402 254.065 62.9933 260.036 62.9933Z" fill="white"/>
<path d="M268.296 0C269.446 0 270.549 0.288801 271.605 0.866402C272.661 1.43817 273.489 2.26081 274.09 3.33434C274.697 4.40786 275 5.53097 275 6.70368C275 7.87055 274.703 8.98491 274.107 10.0468C273.518 11.1028 272.693 11.9283 271.631 12.5235C270.575 13.1127 269.463 13.4074 268.296 13.4074C267.13 13.4074 266.015 13.1127 264.953 12.5235C263.897 11.9283 263.072 11.1028 262.477 10.0468C261.887 8.98491 261.593 7.87055 261.593 6.70368C261.593 5.53097 261.893 4.40786 262.494 3.33434C263.101 2.26081 263.932 1.43817 264.988 0.866402C266.044 0.288801 267.147 0 268.296 0ZM268.305 1.31273C267.383 1.31273 266.499 1.54319 265.653 2.0041C264.808 2.46502 264.139 3.12722 263.649 3.9907C263.165 4.85419 262.923 5.75851 262.923 6.70368C262.923 7.64301 263.159 8.53859 263.632 9.3904C264.11 10.2422 264.775 10.9073 265.627 11.3858C266.479 11.8642 267.372 12.1034 268.305 12.1034C269.245 12.1034 270.137 11.8642 270.983 11.3858C271.835 10.9073 272.5 10.2422 272.979 9.3904C273.457 8.53859 273.696 7.64301 273.696 6.70368C273.696 5.75851 273.451 4.85419 272.961 3.9907C272.477 3.12722 271.809 2.46502 270.957 2.0041C270.111 1.54319 269.227 1.31273 268.305 1.31273ZM265.268 10.2918V3.17681H266.712C268.066 3.17681 268.824 3.18264 268.988 3.19431C269.466 3.23515 269.837 3.33142 270.099 3.48311C270.368 3.62897 270.589 3.85651 270.764 4.16573C270.945 4.46912 271.036 4.80751 271.036 5.18091C271.036 5.69434 270.866 6.13483 270.528 6.50239C270.196 6.86412 269.726 7.08875 269.119 7.17626C269.335 7.25794 269.501 7.34838 269.618 7.44756C269.735 7.54091 269.895 7.72178 270.099 7.99016C270.152 8.06017 270.327 8.34897 270.624 8.85656L271.465 10.2918H269.679L269.084 9.13661C268.682 8.36064 268.349 7.87347 268.086 7.6751C267.824 7.4709 267.491 7.3688 267.089 7.3688H266.712V10.2918H265.268ZM266.712 6.2486H267.299C268.133 6.2486 268.649 6.21651 268.848 6.15233C269.052 6.08815 269.212 5.9773 269.329 5.81977C269.446 5.65641 269.504 5.47263 269.504 5.26843C269.504 5.07006 269.446 4.89503 269.329 4.74333C269.218 4.58581 269.058 4.47495 268.848 4.41078C268.638 4.34076 268.121 4.30576 267.299 4.30576H266.712V6.2486Z" fill="white"/>
</svg>
