<svg width="37" height="35" viewBox="0 0 37 35" fill="none" xmlns="http://www.w3.org/2000/svg">
<path d="M28.666 24.4311C30.91 26.5568 33.1097 28.6501 35.3214 30.7299C35.9548 31.3258 36.3509 31.9924 36.1398 32.8595C35.7477 34.4753 33.7511 34.9719 32.4281 33.7476C30.3651 31.8377 28.3443 29.8877 26.3155 27.9472C26.1044 27.7448 25.9476 27.4927 25.7204 27.2062C21.1078 30.2983 16.2098 31.1673 10.9478 29.5745C7.26825 28.461 4.41708 26.2684 2.38226 23.1514C-1.69744 16.9022 -0.430699 8.77749 5.36613 3.8824C11.1167 -0.974494 19.7446 -1.19031 25.7928 3.29988C31.855 7.79962 34.3563 16.8908 28.666 24.4311ZM15.9444 26.255C22.3846 26.255 27.5582 21.3466 27.5662 15.2292C27.5722 9.08689 22.3263 4.10586 15.8841 4.13833C9.48202 4.17079 4.25824 9.17093 4.28639 15.2387C4.31454 21.3409 9.51218 26.255 15.9444 26.255Z" fill="white"/>
</svg>
