<svg width="25" height="25" viewBox="0 0 25 25" fill="none" xmlns="http://www.w3.org/2000/svg">
<path d="M13.9967 0C14.4296 0 14.8625 0 15.2954 0C15.3651 0.0139532 15.4339 0.0351236 15.5046 0.0408974C16.5579 0.125098 17.5805 0.359897 18.5401 0.792446C21.855 2.28688 23.8608 4.82156 24.4904 8.41716C24.7765 10.0511 24.6332 11.6615 24.0839 13.2224C23.0032 16.2954 20.8979 18.3648 17.8441 19.4657C16.4334 19.9743 14.9683 20.0878 13.4878 19.904C12.1728 19.7409 10.9391 19.3103 9.78758 18.6482C9.41771 18.4356 9.31574 18.4572 9.01175 18.7613C7.3966 20.3765 5.78193 21.9922 4.16678 23.6074C3.79546 23.9788 3.38807 24.3012 2.8864 24.4773C2.07545 24.7622 1.3357 24.6799 0.685886 24.0602C0.343905 23.7344 0.126499 23.349 0 22.9025C0 22.6778 0 22.4536 0 22.2289C0.215001 21.2243 0.922531 20.5608 1.6113 19.878C3.03454 18.4673 4.4472 17.0455 5.86466 15.6281C6.18307 15.3096 6.19943 15.2283 5.97817 14.8337C5.27978 13.5904 4.83776 12.2682 4.70308 10.8426C4.53089 9.02003 4.80938 7.27011 5.63716 5.64191C7.21238 2.54285 9.72554 0.684189 13.167 0.110663C13.4421 0.0654358 13.7201 0.0365671 13.9967 0ZM14.6374 2.61118C10.5033 2.654 7.27347 5.9128 7.26625 10.0049C7.25904 14.0697 10.5831 17.3872 14.6407 17.3665C18.7801 17.3453 22.02 14.0605 22.008 9.97751C21.995 5.83677 18.7075 2.64822 14.6374 2.61118Z" fill="black"/>
<path d="M15.0789 3.96993C15.949 3.99928 16.783 4.17057 17.5839 4.49919C18.1255 4.72196 18.3756 5.29067 18.1798 5.8233C17.9855 6.35112 17.417 6.63355 16.8677 6.43243C16.1275 6.16107 15.3795 5.99651 14.5883 6.10381C13.0448 6.31359 11.8962 7.09737 11.1545 8.47104C11.0785 8.61154 11.0131 8.75829 10.9299 8.89445C10.6495 9.35587 10.0892 9.52523 9.61443 9.29765C9.12671 9.06381 8.89343 8.5129 9.09496 8.00193C9.3494 7.35671 9.71399 6.7726 10.1714 6.25104C11.1545 5.12901 12.3806 4.41788 13.8423 4.12678C14.2487 4.04547 14.6662 4.02045 15.0789 3.96993Z" fill="black"/>
</svg>
