<svg width="33" height="22" viewBox="0 0 33 22" fill="none" xmlns="http://www.w3.org/2000/svg">
<g clip-path="url(#clip0_527_4432)">
<path d="M0 2.75C0 1.23122 1.23122 0 2.75 0H30.25C31.7688 0 33 1.23122 33 2.75V19.25C33 20.7688 31.7688 22 30.25 22H2.75C1.23122 22 0 20.7688 0 19.25V2.75Z" fill="#FDEACE"/>
<path d="M19.943 4.48779L12.8418 4.51221L13.057 17.5127L20.1582 17.4883L19.943 4.48779Z" fill="#FF5F00"/>
<path d="M13.3089 11.0386C13.2649 8.39442 14.4494 6.04494 16.3048 4.52096C14.9043 3.42203 13.1487 2.7612 11.2455 2.76772C6.73668 2.78316 3.15039 6.49753 3.22642 11.0731C3.30246 15.6488 7.01179 19.3381 11.5206 19.3227C13.4238 19.3162 15.1573 18.6434 16.521 17.535C14.6157 16.0469 13.3528 13.6828 13.3089 11.0386Z" fill="#EB001B"/>
<path d="M29.7733 10.9272C29.8493 15.5028 26.263 19.2171 21.7542 19.2326C19.851 19.2391 18.0953 18.5783 16.6949 17.4794C18.5729 15.9553 19.7348 13.6059 19.6908 10.9617C19.6469 8.31749 18.3844 5.97639 16.4786 4.46529C17.8424 3.35689 19.5759 2.68412 21.4791 2.6776C25.9879 2.66216 29.6976 6.37453 29.7733 10.9272Z" fill="#F79E1B"/>
</g>
<defs>
<clipPath id="clip0_527_4432">
<rect width="33" height="22" fill="white"/>
</clipPath>
</defs>
</svg>
