<svg width="26" height="18" viewBox="0 0 26 18" fill="none" xmlns="http://www.w3.org/2000/svg">
<path d="M4.78989 12.9622C6.19123 12.9622 7.37881 13.8521 7.81425 15.0748H18.2174C18.6529 13.8444 19.8404 12.9622 21.2418 12.9622C22.6431 12.9622 23.8307 13.8521 24.2661 15.0748H26V9.73517L24.6699 9.11608L23.2211 1.99656H17.7107V10.3156H16.0164V0H0V15.0825H1.76553C2.20097 13.8521 3.38063 12.9622 4.78989 12.9622ZM21.9781 3.61393L22.9756 9.28633H19.4604V3.61393H21.9781Z" fill="white"/>
<path d="M4.78989 14.2236C3.72107 14.2236 2.8581 15.0671 2.8581 16.1118C2.8581 17.1565 3.72107 18 4.78989 18C5.85871 18 6.72168 17.1565 6.72168 16.1118C6.72168 15.0671 5.85871 14.2236 4.78989 14.2236Z" fill="white"/>
<path d="M19.31 16.1118C19.31 17.1565 20.173 18 21.2418 18C22.3106 18 23.1736 17.1565 23.1736 16.1118C23.1736 15.0671 22.3106 14.2236 21.2418 14.2236C20.173 14.2236 19.31 15.0671 19.31 16.1118Z" fill="white"/>
</svg>
