<svg width="26" height="18" viewBox="0 0 26 18" fill="none" xmlns="http://www.w3.org/2000/svg">
<g clip-path="url(#clip0_72_126)">
<path d="M4.78989 12.9622C6.19123 12.9622 7.37881 13.8521 7.81425 15.0748H18.2174C18.6529 13.8444 19.8404 12.9622 21.2418 12.9622C22.6431 12.9622 23.8307 13.8521 24.2661 15.0748H26V9.73517L24.6699 9.11608L23.2211 1.99656H17.7107V10.3156H16.0164V0H0V15.0825H1.76553C2.20097 13.8521 3.38063 12.9622 4.78989 12.9622ZM19.4683 3.61393H21.9781L22.9756 9.28633H19.4604V3.61393H19.4683Z" fill="#F70017"/>
<path d="M4.7897 14.2235C3.72088 14.2235 2.85791 15.067 2.85791 16.1117C2.85791 17.1564 3.72088 18 4.7897 18C5.85852 18 6.72149 17.1564 6.72149 16.1117C6.72149 15.067 5.85852 14.2235 4.7897 14.2235Z" fill="#F70017"/>
<path d="M19.3101 16.1117C19.3101 17.1564 20.173 18 21.2418 18C22.3107 18 23.1736 17.1564 23.1736 16.1117C23.1736 15.067 22.3107 14.2235 21.2418 14.2235C20.173 14.2235 19.3101 15.067 19.3101 16.1117Z" fill="#F70017"/>
</g>
<defs>
<clipPath id="clip0_72_126">
<rect width="26" height="18" fill="white"/>
</clipPath>
</defs>
</svg>
