<svg width="31" height="36" viewBox="0 0 31 36" fill="none" xmlns="http://www.w3.org/2000/svg">
<path d="M31 29.7284C31 23.6871 27.368 19.7962 22.1412 17.3615C20.3019 18.7608 18.0086 19.6028 15.5058 19.6028C13.003 19.6028 10.7097 18.7608 8.87045 17.3615C3.63199 19.7962 0 23.6871 0 29.7284C0 38.0905 31 38.0905 31 29.7284Z" fill="white"/>
<path d="M15.4942 15.3818C19.8479 15.3818 23.3635 11.9346 23.3635 7.69092C23.3635 3.44726 19.8363 0 15.4942 0C11.1521 0 7.62486 3.44726 7.62486 7.69092C7.62486 11.9346 11.1521 15.3818 15.4942 15.3818Z" fill="white"/>
</svg>
