<svg width="47" height="47" viewBox="0 0 47 47" fill="none" xmlns="http://www.w3.org/2000/svg">
<path d="M22.1422 0C23.3266 0 24.5089 0 25.6933 0C25.8897 0.0543111 26.0819 0.137867 26.2824 0.158756C35.9038 1.15724 43.71 7.79156 46.2167 17.1456C46.5634 18.4407 46.7431 19.7797 47 21.0978C47 22.2822 47 23.4645 47 24.6489C46.9436 24.8808 46.858 25.1126 46.8329 25.3487C46.3838 29.7541 44.7565 33.6854 41.9825 37.1154C35.0933 45.6318 23.6588 48.1844 13.7658 43.476C13.394 43.2985 12.8822 43.1544 12.5187 43.2672C8.61458 44.4808 4.72716 45.7467 0.835556 47C0.557733 47 0.277822 47 0 47C0 46.7222 0 46.4423 0 46.1644C1.24289 42.5611 2.50876 38.9661 3.69942 35.344C3.85609 34.8636 3.78298 34.1763 3.55111 33.7209C1.44551 29.5975 0.405244 25.2568 0.998489 20.6382C2.23302 11.0168 7.50747 4.55169 16.5941 1.25333C18.3613 0.612044 20.2894 0.407333 22.1422 0ZM7.20876 39.9312C9.14933 39.3171 10.8956 38.7969 12.619 38.2058C13.3062 37.9697 13.8452 38.0345 14.4739 38.4168C18.1754 40.6665 22.2091 41.4665 26.4829 40.8879C35.9957 39.5991 42.9162 31.0994 42.1412 21.4299C41.3684 11.798 33.2635 4.79191 24.1559 4.79818C16.9492 4.80444 11.3698 7.97956 7.90018 14.2755C4.42009 20.5923 4.84831 26.9488 8.76916 33.0212C9.15142 33.6123 9.22453 34.1116 8.99058 34.757C8.39316 36.4052 7.84378 38.0742 7.20876 39.9312Z" fill="white"/>
<path d="M19.222 21.2962C21.0852 23.9303 23.2452 26.0944 26.1257 27.4689C26.6856 27.7363 27.0574 27.7133 27.4292 27.1785C27.8449 26.579 28.3316 26.0296 28.7974 25.4677C29.2444 24.9288 29.8001 24.7199 30.4644 25.0291C32.0686 25.7769 33.7 26.4808 35.2479 27.331C35.6156 27.5336 35.8913 28.2334 35.8996 28.7097C35.9644 32.0812 33.0734 33.7293 30.903 33.8358C27.4668 34.005 24.4296 32.7016 21.6012 30.9302C18.1942 28.7974 15.7126 25.7476 13.6739 22.3448C12.456 20.3124 11.9798 18.0981 12.6921 15.7356C13.4253 13.3041 15.0651 12.0341 17.5613 12.197C18.0731 12.2304 18.7624 12.7109 18.9984 13.1746C19.7525 14.6556 20.4252 16.1972 20.9265 17.7785C21.0978 18.3196 20.7719 19.1008 20.4878 19.6815C20.2037 20.258 19.6878 20.7197 19.222 21.2962Z" fill="white"/>
</svg>
