<svg width="54" height="51" viewBox="0 0 54 51" fill="none" xmlns="http://www.w3.org/2000/svg">
<path opacity="0.25" d="M52.0124 25.5C52.0124 39.0073 40.7746 50 26.8584 50C12.9422 50 1.70435 39.0073 1.70435 25.5C1.70435 11.9927 12.9422 1 26.8584 1C40.7746 1 52.0124 11.9927 52.0124 25.5Z" stroke="white" stroke-width="2"/>
<path fill-rule="evenodd" clip-rule="evenodd" d="M34.7231 19.6561C35.5195 19.8616 36.1467 20.4639 36.3605 21.2272C36.7573 22.6205 36.7387 25.5253 36.7387 25.5253C36.7387 25.5253 36.7359 28.4141 36.3512 29.8064C36.1347 30.5689 35.5046 31.1703 34.7092 31.3749C33.2539 31.7397 27.4321 31.7335 27.4321 31.7335C27.4321 31.7335 21.6261 31.7272 20.156 31.3447C19.3586 31.1392 18.7314 30.5369 18.5177 29.7744C18.1367 28.3954 18.1404 25.4915 18.1404 25.4915C18.1404 25.4915 18.1441 22.6018 18.5279 21.2086C18.7435 20.4461 19.3884 19.8304 20.169 19.6267C21.6251 19.2611 27.446 19.2673 27.446 19.2673C27.446 19.2673 33.2679 19.2735 34.7231 19.6561ZM25.5884 22.8304L25.5838 28.1683L30.4271 25.5038L25.5884 22.8304Z" fill="white"/>
</svg>
