<svg width="19" height="13" viewBox="0 0 19 13" fill="none" xmlns="http://www.w3.org/2000/svg">
<path fill-rule="evenodd" clip-rule="evenodd" d="M16.1904 0.600832C16.944 0.795313 17.5376 1.36529 17.7399 2.08765C18.1154 3.40608 18.0978 6.15492 18.0978 6.15492C18.0978 6.15492 18.0951 8.88861 17.7311 10.2062C17.5262 10.9277 16.93 11.4968 16.1772 11.6905C14.8001 12.0357 9.29088 12.0298 9.29088 12.0298C9.29088 12.0298 3.79657 12.0239 2.4054 11.6619C1.6509 11.4674 1.05733 10.8974 0.855074 10.1759C0.494532 8.87093 0.498048 6.12293 0.498048 6.12293C0.498048 6.12293 0.501567 3.3884 0.864747 2.06997C1.06876 1.34845 1.67904 0.765846 2.41772 0.573049C3.79569 0.227023 9.30407 0.232917 9.30407 0.232917C9.30407 0.232917 14.8133 0.23881 16.1904 0.600832ZM7.54627 3.60498L7.54187 8.65625L12.1251 6.13482L7.54627 3.60498Z" fill="white"/>
</svg>
