<svg width="23" height="18" viewBox="0 0 23 18" fill="none" xmlns="http://www.w3.org/2000/svg">
<path d="M0.762695 12.0301L1.35878 13.9943H15.4147L19.7091 1.96422H21.4268L22.2857 0H18.4208L14.12 12.0301H0.762695Z" fill="black"/>
<path d="M12.8766 10.5875L15.8827 2.16386H0L2.46764 10.5875H12.8766Z" fill="black"/>
<path d="M3.80081 14.5417C2.85221 14.5417 2.07666 15.3145 2.07666 16.2741C2.07666 17.2272 2.8458 18 3.80081 18C4.74941 18 5.52495 17.2272 5.52495 16.2741C5.51854 15.3209 4.74941 14.5417 3.80081 14.5417Z" fill="black"/>
<path d="M12.2163 14.5417C11.2677 14.5417 10.4922 15.3145 10.4922 16.2741C10.4922 17.2272 11.2613 18 12.2163 18C13.1649 18 13.9405 17.2272 13.9405 16.2741C13.9405 15.3209 13.1713 14.5417 12.2163 14.5417Z" fill="black"/>
</svg>
