<svg width="21" height="19" viewBox="0 0 21 19" fill="none" xmlns="http://www.w3.org/2000/svg">
<g clip-path="url(#clip0_13_386)">
<path d="M10.4797 18.999C7.69297 18.999 4.9056 18.9997 2.11889 18.999C0.913814 18.999 0.00196801 18.0883 0.00196801 16.8834C0.000656005 12.6648 0 8.44551 0 4.22622C0 3.02335 0.913814 2.1113 2.11824 2.10998C3.12389 2.10932 4.12955 2.11921 5.13455 2.10009C5.2933 2.09679 5.48813 2.00447 5.59965 1.8884C6.13692 1.32653 6.64664 0.738283 7.17931 0.171798C7.26394 0.0814509 7.41679 0.00759023 7.53815 0.00693076C9.516 -0.0029613 11.4945 -0.0029613 13.4724 0.00693076C13.5931 0.00759023 13.7426 0.0873862 13.8279 0.178393C14.3672 0.754111 14.8847 1.34961 15.4273 1.92137C15.5243 2.02359 15.7015 2.09943 15.8432 2.10141C16.8705 2.11658 17.8978 2.108 18.9251 2.10998C20.0816 2.11196 20.9994 3.03654 21 4.20182C21.0013 8.44288 21.0013 12.6839 21 16.925C20.9994 18.0678 20.0757 18.997 18.9395 18.9977C16.1193 19.0003 13.2998 18.999 10.4797 18.999ZM10.5059 5.29456C7.60965 5.29456 5.26575 7.65877 5.26575 10.5822C5.26509 13.4588 7.63524 15.8171 10.5282 15.8171C13.3622 15.8177 15.7316 13.439 15.733 10.5928C15.7349 7.66338 13.3982 5.29456 10.5059 5.29456Z" fill="white"/>
<path d="M10.5013 7.17633C12.3939 7.17633 13.8634 8.65288 13.8634 10.5548C13.8634 12.4574 12.3946 13.9346 10.5026 13.9346C8.61007 13.9346 7.14128 12.458 7.14063 10.5568C7.14062 8.65354 8.60942 7.17633 10.5013 7.17633Z" fill="white"/>
</g>
<defs>
<clipPath id="clip0_13_386">
<rect width="21" height="19" fill="white"/>
</clipPath>
</defs>
</svg>
