<svg width="14" height="22" viewBox="0 0 14 22" fill="none" xmlns="http://www.w3.org/2000/svg">
<g clip-path="url(#clip0_4_55)">
<path d="M4.93282 21.9682C4.93282 21.4701 4.93282 20.9599 4.93282 20.4059C3.27157 20.4059 1.6504 20.4059 0 20.4059C0 14.1362 0 7.9103 0 1.61733C1.62033 1.61733 3.25069 1.61733 4.91612 1.61733C4.91612 1.05385 4.91612 0.555742 4.91612 0C5.61019 0.12302 6.25916 0.233997 6.90729 0.354436C9.16072 0.775975 11.4125 1.20698 13.6684 1.61561C13.9399 1.66465 14.0008 1.76874 14 2.02941C13.9925 8.01955 13.9908 14.0097 13.9925 19.9998C13.9925 20.2218 13.9733 20.3534 13.7002 20.4025C10.8161 20.9247 7.93461 21.4658 5.05226 22C5.02804 22.0043 4.99964 21.9871 4.93282 21.9682ZM1.48168 18.8445C2.63763 18.8445 3.75767 18.8445 4.8919 18.8445C4.8919 13.5942 4.8919 8.37313 4.8919 3.13659C3.74096 3.13659 2.62093 3.13659 1.48168 3.13659C1.48168 8.37485 1.48168 13.5873 1.48168 18.8445ZM6.97995 11.003C6.97745 10.5987 6.72521 10.2778 6.41785 10.2881C6.10798 10.2984 5.88498 10.6159 5.89417 11.034C5.90252 11.4314 6.12719 11.7248 6.42704 11.7282C6.73273 11.7325 6.98246 11.4048 6.97995 11.003Z" fill="white"/>
</g>
<defs>
<clipPath id="clip0_4_55">
<rect width="14" height="22" fill="white"/>
</clipPath>
</defs>
</svg>
