<svg width="20" height="20" viewBox="0 0 20 20" fill="none" xmlns="http://www.w3.org/2000/svg">
<path d="M17.301 0C17.3823 0.0141216 17.5778 0.033735 17.7647 0.0815916C19.1653 0.442478 20.2937 2.12766 19.9317 3.39311C19.8183 3.78852 19.5829 4.19491 19.2943 4.48754C16.4079 7.41621 13.5003 10.3237 10.5905 13.2296C10.4505 13.3693 10.2518 13.4775 10.061 13.5317C8.76209 13.9051 7.45846 14.2621 6.15484 14.619C5.59648 14.772 5.30166 14.47 5.45571 13.9035C5.80762 12.6083 6.15562 11.3114 6.52552 10.0216C6.5873 9.80747 6.71555 9.58702 6.87273 9.42854C9.7404 6.53675 12.619 3.65515 15.4914 0.76806C15.9629 0.294201 16.5096 0.00784535 17.301 0ZM10.1181 12.1579C12.515 9.75334 14.9236 7.33619 17.3072 4.94492C16.5784 4.21452 15.8167 3.45117 15.0824 2.71528C12.6956 5.10968 10.2862 7.52761 7.89405 9.92672C8.62289 10.6571 9.38536 11.422 10.1181 12.1579ZM15.8503 1.85464C16.6347 2.63996 17.4018 3.40959 18.1721 4.18157C18.8971 3.57434 19.1817 3.09107 18.9698 2.53876C18.6945 1.82247 18.1815 1.25133 17.4308 1.04735C16.6847 0.84416 16.2452 1.40353 15.8503 1.85464ZM9.02876 12.7809C8.44694 12.1979 7.8526 11.6025 7.28173 11.0298C7.08153 11.7586 6.86022 12.5675 6.61779 13.4509C7.50304 13.2053 8.31556 12.9793 9.02876 12.7809Z" fill="#E42828"/>
<path d="M9.46278 19.9978C7.23402 19.9978 5.00527 19.9986 2.77652 19.9978C1.02557 19.9962 0.000347564 18.974 0.000347564 17.2315C0.000347564 13.0343 -0.000434455 8.837 0.000347564 4.64052C0.000347564 3.00242 1.02323 1.96212 2.64435 1.95663C3.99959 1.95192 5.35561 1.95506 6.71085 1.95585C7.17616 1.95663 7.41467 2.1206 7.42249 2.4399C7.43031 2.76705 7.16912 2.95534 6.69052 2.95613C5.3869 2.95848 4.08249 2.98908 2.78121 2.9475C1.57221 2.90906 0.988038 3.70379 0.995858 4.71741C1.02792 8.888 1.03027 13.0594 0.995858 17.23C0.985692 18.3989 1.78335 19.0038 2.75462 18.9983C7.25123 18.9732 11.7478 18.9881 16.2437 18.9865C17.3854 18.9865 17.9813 18.3903 17.9829 17.2496C17.9844 15.9025 17.9821 14.5563 17.9837 13.2092C17.9844 12.7644 18.1448 12.5541 18.4748 12.5518C18.7915 12.5494 18.9854 12.7856 18.987 13.2029C18.9909 14.5892 18.9972 15.9747 18.9862 17.361C18.9737 18.9269 17.9086 19.99 16.3445 19.9954C14.0509 20.0041 11.7572 19.9978 9.46278 19.9978Z" fill="#E42828"/>
</svg>
