<svg width="17" height="20" viewBox="0 0 17 20" fill="none" xmlns="http://www.w3.org/2000/svg">
<path d="M1.34534 5.97308C0.589961 5.70913 0.111921 5.21012 0.0139429 4.42373C-0.118802 3.35855 0.711644 2.46283 1.85104 2.43706C2.62617 2.41988 3.40289 2.43394 4.21121 2.43394C4.2278 2.16843 4.23887 1.92556 4.25941 1.68347C4.33764 0.755737 5.08354 0.027918 6.02776 0.0154232C7.48875 -0.00488076 8.95052 -0.00566169 10.4115 0.0162041C11.3668 0.0310417 12.1238 0.79166 12.1751 1.73111C12.187 1.94899 12.1767 2.16764 12.1767 2.43316C12.9977 2.43316 13.7704 2.42535 14.5424 2.4355C15.4147 2.44643 16.1132 2.9431 16.3463 3.69591C16.6126 4.55805 16.2175 5.47173 15.3768 5.84188C15.1366 5.94731 15.086 6.06913 15.086 6.30341C15.0923 9.98624 15.0892 13.6683 15.0916 17.3511C15.0923 18.0516 14.9177 18.6896 14.4349 19.2199C13.9609 19.7415 13.3643 20 12.6532 20C9.7304 19.9992 6.80764 20 3.88409 19.9992C2.40335 19.9984 1.3485 18.9684 1.34613 17.4987C1.33981 14.0377 1.34376 10.5758 1.34376 7.11479C1.34534 6.7376 1.34534 6.3612 1.34534 5.97308ZM2.3275 6.03009C2.3109 6.09256 2.29905 6.11677 2.29905 6.14176C2.29747 9.94016 2.28878 13.7378 2.30221 17.5362C2.30537 18.4772 2.95804 19.0613 3.92518 19.0621C6.78077 19.0637 9.63716 19.0637 12.4928 19.0613C12.6626 19.0613 12.8381 19.0574 13.0016 19.0184C13.7325 18.8435 14.1394 18.2336 14.1402 17.3144C14.1426 13.6722 14.141 10.03 14.1402 6.38853C14.1402 6.27529 14.1268 6.16206 14.1189 6.03165C10.1776 6.03009 6.26086 6.03009 2.3275 6.03009ZM8.18566 5.07033C10.2511 5.07033 12.3173 5.07111 14.3828 5.06955C15.0671 5.06877 15.4811 4.73922 15.4716 4.21054C15.4629 3.68966 15.0631 3.37651 14.401 3.37417C13.6906 3.37183 12.9803 3.37339 12.2691 3.37339C8.83516 3.37339 5.40117 3.37183 1.9664 3.37495C1.35008 3.37573 0.949479 3.72402 0.95738 4.23162C0.965282 4.72907 1.35087 5.05627 1.94823 5.06955C2.04067 5.07189 2.13233 5.07033 2.22478 5.07033C4.212 5.07033 6.19922 5.07033 8.18566 5.07033ZM11.219 2.41442C11.2254 2.29181 11.2333 2.20279 11.2348 2.11298C11.2443 1.24538 10.9417 0.945502 10.0567 0.944721C8.78143 0.944721 7.50613 0.926759 6.23162 0.958777C5.95744 0.965805 5.63427 1.09153 5.42725 1.26958C5.08512 1.56321 5.191 1.99975 5.21549 2.41442C7.21931 2.41442 9.19863 2.41442 11.219 2.41442Z" fill="#E42828"/>
<path d="M7.74317 12.1158C7.74317 10.7242 7.74238 9.3326 7.74317 7.941C7.74317 7.46932 7.88145 7.27097 8.20462 7.2655C8.54517 7.25926 8.69214 7.46542 8.69214 7.95896C8.69293 10.7422 8.69293 13.5254 8.69214 16.3094C8.69214 16.8021 8.54834 17.0223 8.22516 17.0302C7.89172 17.038 7.74238 16.8107 7.74238 16.2914C7.74317 14.899 7.74317 13.5074 7.74317 12.1158Z" fill="#E42828"/>
<path d="M4.94842 12.1111C4.94842 10.7593 4.94763 9.40757 4.94921 8.0558C4.94921 7.91367 4.9176 7.74343 4.9824 7.63488C5.07168 7.48729 5.23998 7.29127 5.3751 7.29127C5.5355 7.29049 5.72909 7.44902 5.84603 7.58881C5.92267 7.68017 5.90055 7.86213 5.90055 8.00348C5.90292 10.7593 5.90292 13.5152 5.90213 16.2703C5.90213 16.3742 5.90371 16.4796 5.88712 16.5811C5.84287 16.8591 5.68958 17.0434 5.38774 17.0239C5.1104 17.0059 4.96264 16.824 4.9579 16.5561C4.94684 15.9587 4.94842 15.3605 4.94763 14.7624C4.94763 13.8791 4.94842 12.9951 4.94842 12.1111Z" fill="#E42828"/>
<path d="M11.4782 12.1369C11.4782 13.5019 11.4782 14.867 11.4774 16.2321C11.4774 16.3617 11.5161 16.5194 11.4561 16.6155C11.3565 16.774 11.2009 16.9872 11.0523 17.0005C10.903 17.0145 10.7007 16.8396 10.5822 16.6975C10.5055 16.6053 10.5253 16.4249 10.5253 16.2836C10.5229 13.5269 10.5229 10.7711 10.5245 8.01441C10.5245 7.88556 10.5284 7.75358 10.5569 7.62863C10.613 7.38108 10.7939 7.20381 11.0349 7.28034C11.2064 7.33501 11.3739 7.52555 11.4545 7.69657C11.5256 7.84651 11.4766 8.05345 11.4774 8.23541C11.4782 9.53721 11.4782 10.8374 11.4782 12.1369Z" fill="#E42828"/>
</svg>
