<svg width="32" height="33" viewBox="0 0 32 33" fill="none" xmlns="http://www.w3.org/2000/svg">
<path d="M12.5623 32.9987C9.08295 32.9987 5.60427 32.9987 2.12496 32.9987C2.05871 32.9716 1.99434 32.9336 1.92559 32.9194C0.981856 32.7209 0.389992 32.1312 0.107498 31.1928C0.0749985 31.0845 0.0362493 30.9788 0 30.8718C0 25.8879 0 20.9033 0 15.9193C0.0237495 15.8729 0.0593738 15.8284 0.0699986 15.7788C0.343118 14.4982 1.15185 13.8008 2.4262 13.7976C5.69614 13.7886 8.9667 13.7892 12.2366 13.8027C12.571 13.804 12.9329 13.8517 13.2347 13.989C14.2316 14.4408 14.6322 15.2748 14.6278 16.3846C14.6128 20.1544 14.6228 23.9241 14.6216 27.6938C14.6216 28.6928 14.6347 29.6918 14.6097 30.6901C14.5835 31.7593 13.9066 32.6107 12.911 32.8891C12.7941 32.9214 12.6785 32.962 12.5623 32.9987Z" fill="#3EBDB1"/>
<path d="M19.4371 0C22.9164 0 26.3951 0 29.8744 0C29.9407 0.0270693 30.005 0.0650951 30.0738 0.0792742C31.015 0.275849 31.6069 0.862994 31.8875 1.79946C31.9262 1.92965 31.9625 2.06049 32 2.19132C32 7.15402 32 12.1167 32 17.0794C31.9731 17.1471 31.935 17.2122 31.9219 17.2831C31.7181 18.3729 30.8619 19.1824 29.7925 19.1882C26.3664 19.2069 22.9402 19.2005 19.514 19.1831C19.2159 19.1818 18.8921 19.0832 18.6253 18.9414C17.7303 18.4664 17.369 17.6736 17.3722 16.6463C17.3853 12.8766 17.3765 9.10687 17.3778 5.33715C17.3778 4.32786 17.3647 3.31792 17.389 2.30862C17.4147 1.24712 18.0684 0.415706 19.059 0.120523C19.1853 0.0837858 19.3109 0.0406039 19.4371 0Z" fill="#3EBDB1"/>
<path d="M12.6248 0C12.7316 0.0348033 12.8372 0.0728292 12.9447 0.10441C13.9822 0.406039 14.6391 1.29546 14.651 2.51357C14.6703 4.49994 14.671 6.48695 14.6497 8.47397C14.636 9.73849 13.9566 10.6427 12.8654 10.9102C12.6154 10.9714 12.3498 10.9869 12.0916 10.9869C8.92608 10.9921 5.75989 10.9914 2.59432 10.9895C1.20373 10.9888 0.409367 10.3546 0.052499 8.97281C0.0443741 8.94381 0.0174997 8.91996 0 8.89418C0 6.63841 0 4.38264 0 2.12687C0.0231245 2.06822 0.0556239 2.0115 0.0687487 1.95092C0.26687 1.00607 0.824984 0.404105 1.70997 0.110855C1.82684 0.0721847 1.94496 0.0367368 2.06246 0C5.58302 0 9.1042 0 12.6248 0Z" fill="#3EBDB1"/>
<path d="M19.3746 32.9987C19.2684 32.9639 19.1628 32.9252 19.0553 32.8943C18.0159 32.592 17.3603 31.702 17.3484 30.4851C17.3297 28.4988 17.3303 26.5111 17.3484 24.5247C17.3597 23.2731 18.0084 22.394 19.1065 22.1027C19.384 22.0292 19.6827 22.0144 19.9715 22.0137C23.0752 22.0079 26.1782 22.0099 29.2819 22.0099C30.8169 22.0099 31.5138 22.5429 31.9606 24.0568C31.9662 24.0755 31.9863 24.0897 32 24.1058C32 26.3616 32 28.6174 32 30.8731C31.7525 32.0358 31.0644 32.7441 29.9375 33C26.4164 32.9987 22.8952 32.9987 19.3746 32.9987Z" fill="#3EBDB1"/>
</svg>
