<svg width="32" height="33" viewBox="0 0 32 33" fill="none" xmlns="http://www.w3.org/2000/svg">
<path d="M3.41898 15.6602C2.75564 15.6602 2.19383 15.6405 1.63338 15.6645C0.942964 15.6941 0.363557 15.5121 0.0982204 14.7885C-0.1793 14.0352 0.164554 13.4949 0.712826 13.0167C2.83958 11.1631 4.95414 9.29396 7.07277 7.43049C9.6043 5.20588 12.1385 2.98128 14.6687 0.749628C15.7923 -0.242062 16.1714 -0.250526 17.2842 0.728468C18.711 1.98254 20.1392 3.23802 21.6825 4.59507C21.7001 4.18457 21.6988 3.89821 21.7258 3.61467C21.7922 2.92204 22.1617 2.54821 22.8278 2.53834C23.8417 2.52282 24.8571 2.52423 25.8724 2.53693C26.6142 2.54539 26.9865 2.92768 26.9946 3.71482C27.0095 5.35965 27.0136 7.00447 26.9919 8.64929C26.9865 9.08659 27.1002 9.38142 27.436 9.66637C28.7126 10.7483 29.9634 11.8628 31.217 12.9729C31.9602 13.6303 32.147 14.1353 31.8925 14.7856C31.5974 15.5417 30.9991 15.6997 30.291 15.6673C29.7536 15.6419 29.2135 15.6617 28.5691 15.6617C28.5691 15.9692 28.5691 16.24 28.5691 16.5095C28.5691 21.3734 28.5691 26.2373 28.5691 31.1013C28.5691 32.5514 28.1386 33 26.751 33C19.5801 33 12.4093 33 5.23843 33C3.84812 33 3.41763 32.5528 3.41763 31.1055C3.41628 26.2655 3.41763 21.4242 3.41763 16.5842C3.41898 16.3049 3.41898 16.027 3.41898 15.6602ZM15.8776 11.0192C11.2058 11.0559 8.38591 15.9706 9.98335 19.7709C11.2329 22.7417 12.9142 25.4206 14.7296 28.0218C15.2941 28.8301 16.3636 28.8301 16.9403 28.0176C18.7773 25.4304 20.4668 22.753 21.6988 19.7737C23.2962 15.9113 20.4668 11.1095 15.8776 11.0192Z" fill="#FE9128"/>
<path d="M15.8478 14.0916C17.3153 14.093 18.4524 15.2681 18.4633 16.7958C18.4755 18.3334 17.2896 19.5931 15.8356 19.5861C14.421 19.5804 13.2175 18.3348 13.1958 16.8522C13.1728 15.3301 14.3641 14.0902 15.8478 14.0916Z" fill="#FE9128"/>
</svg>
