<svg width="29" height="35" viewBox="0 0 29 35" fill="none" xmlns="http://www.w3.org/2000/svg">
<path d="M25.9049 20.5879C24.2439 18.4846 22.096 17.0127 19.6306 15.9668C19.7851 15.811 19.9245 15.6353 20.0975 15.501C24.0441 12.4264 24.4471 6.32009 20.9288 2.73655C19.1721 0.948096 17.0107 0.074588 14.5017 0C14.3908 0.00994506 14.28 0.0248627 14.1692 0.0298352C7.93688 0.261887 3.91974 6.45932 6.30785 12.1313C6.97122 13.706 8.08634 14.9027 9.36941 15.985C7.79581 16.6928 6.27259 17.4818 4.97272 18.6371C1.72643 21.5195 0.0755733 25.1129 0 29.4158C4.08936 33.1585 8.94116 34.9718 14.5 35C20.0672 34.9983 24.9039 33.1519 29 29.4241C28.9496 26.1439 27.9554 23.1819 25.9049 20.5879Z" fill="#3EBDB1"/>
</svg>
