<svg width="32" height="33" viewBox="0 0 32 33" fill="none" xmlns="http://www.w3.org/2000/svg">
<path d="M31.9943 8.79534C31.9943 9.84405 31.9943 10.8262 31.9943 11.8069C31.9943 15.9721 31.9914 20.1389 32 24.3041C32.0014 24.6991 31.9514 24.9742 31.5473 25.1827C26.6398 27.7209 21.7436 30.2813 16.8432 32.8343C16.7418 32.8876 16.6318 32.9231 16.4633 32.9926C16.4505 32.7456 16.4319 32.5607 16.4319 32.3758C16.4305 27.4207 16.4319 22.467 16.4276 17.5119C16.4276 17.1362 16.4248 16.8433 16.8503 16.623C21.7593 14.0892 26.6526 11.5258 31.5516 8.97284C31.673 8.90775 31.8058 8.8693 31.9943 8.79534Z" fill="#FE9128"/>
<path d="M0.0371556 8.7554C1.88482 9.7198 3.64823 10.6236 5.3888 11.5717C5.56871 11.6693 5.70293 12.0347 5.70722 12.2787C5.73435 14.0759 5.7215 15.8745 5.7215 17.6436C6.60106 17.7826 7.5406 17.716 8.25311 18.1021C8.9956 18.5044 9.5182 19.3416 10.255 20.1122C10.255 18.0548 10.255 16.1393 10.255 14.0877C11.8185 14.9012 13.2335 15.6941 14.6985 16.373C15.3882 16.6925 15.5995 17.0904 15.5938 17.861C15.5566 22.6179 15.5752 27.3763 15.5752 32.1332C15.5752 32.3965 15.5752 32.6598 15.5752 33C15.3239 32.8891 15.1497 32.824 14.9869 32.7382C10.1722 30.2281 5.35882 27.7136 0.539765 25.2108C0.191365 25.0289 -0.00282468 24.8499 3.10569e-05 24.3899C0.0200212 19.312 0.0128819 14.2341 0.0128819 9.15625C0.0100261 9.06011 0.0228769 8.961 0.0371556 8.7554Z" fill="#FE9128"/>
<path d="M31.5016 7.98477C31.2075 8.146 31.0047 8.26285 30.7977 8.37083C26.07 10.838 21.3381 13.2978 16.619 15.7828C16.1621 16.0239 15.8165 16.0135 15.3725 15.771C13.8875 14.9604 12.3782 14.1986 10.7662 13.357C11.3502 13.0272 11.8171 12.758 12.2868 12.4976C16.6004 10.1088 20.9183 7.72888 25.2219 5.32232C25.6517 5.0827 25.9715 5.07974 26.3999 5.31196C28.0562 6.21128 29.7354 7.06475 31.5016 7.98477Z" fill="#FE9128"/>
<path d="M0.565467 7.95519C4.11943 6.10182 7.64055 4.26621 11.1602 2.4306C12.6238 1.66736 14.0831 0.899687 15.5524 0.149763C15.7437 0.0521397 16.0336 -0.0514001 16.1935 0.0284735C17.8527 0.85975 19.4933 1.72801 21.2353 2.6362C19.5176 3.59024 17.9083 4.48365 16.2977 5.37705C13.115 7.14166 9.93513 8.91219 6.74242 10.6561C6.48826 10.7951 6.07989 10.8883 5.84715 10.773C4.15513 9.93724 2.4888 9.04679 0.815343 8.16966C0.735383 8.12825 0.672557 8.04837 0.565467 7.95519Z" fill="#FE9128"/>
</svg>
