<svg width="41" height="22" viewBox="0 0 41 22" fill="none" xmlns="http://www.w3.org/2000/svg">
<path d="M20.4849 22C15.7852 21.8187 11.6087 20.1804 7.68351 17.7651C5.19044 16.2304 2.93099 14.3898 0.861971 12.3112C-0.275752 11.1683 -0.288554 10.6713 0.831568 9.55753C4.46396 5.9475 8.5556 3.05138 13.3833 1.28846C19.176 -0.825757 24.7894 -0.254303 30.2668 2.38928C33.9824 4.18296 37.2467 6.6258 40.1638 9.55268C41.2663 10.66 41.2807 11.1699 40.1942 12.2481C36.0242 16.3842 31.3181 19.6543 25.5894 21.1469C23.9253 21.5807 22.1891 21.7232 20.4849 22ZM20.4961 2.44108C15.8524 2.44432 12.1176 6.22594 12.1208 10.9206C12.124 15.6185 15.862 19.3969 20.5025 19.3937C25.1462 19.3904 28.881 15.6088 28.8778 10.9141C28.8746 6.21785 25.1366 2.43784 20.4961 2.44108Z" fill="#FE9128"/>
<path d="M23.146 5.52822C20.6321 4.29142 17.8462 4.84507 16.0476 6.86053C14.2378 8.88895 13.993 11.8887 15.4508 14.1939C16.8813 16.4587 19.6704 17.5061 22.2211 16.7339C24.3877 16.0799 26.2647 13.9041 26.2487 12.0182C24.4421 12.3128 22.9332 11.8223 22.0995 10.0837C21.2786 8.37254 21.749 6.8492 23.146 5.52822Z" fill="white"/>
<path d="M23.146 5.52822C21.749 6.8492 21.2786 8.37092 22.0995 10.0853C22.9332 11.8239 24.4421 12.3144 26.2487 12.0198C26.2647 13.9058 24.3877 16.0799 22.2211 16.7355C19.6704 17.5061 16.8813 16.4603 15.4508 14.1955C13.993 11.8887 14.2378 8.89057 16.0476 6.86215C17.8462 4.84507 20.6305 4.29304 23.146 5.52822Z" fill="#FE9128"/>
</svg>
